<svg width="18" height="18" viewBox="0 0 18 18" fill="none" xmlns="http://www.w3.org/2000/svg">
<path d="M3.2975 5.80163L8.56812 10.989C8.68312 11.1028 8.83836 11.1666 9.00012 11.1666C9.16189 11.1666 9.31712 11.1028 9.43212 10.989L14.7027 5.80275C14.8185 5.68904 14.9742 5.62533 15.1364 5.62533C15.2987 5.62533 15.4544 5.68904 15.5701 5.80275C15.6271 5.8583 15.6724 5.92469 15.7033 5.99802C15.7342 6.07134 15.7502 6.15011 15.7502 6.22969C15.7502 6.30927 15.7342 6.38804 15.7033 6.46136C15.6724 6.53469 15.6271 6.60108 15.5701 6.65663L10.3006 11.8429C9.95353 12.1837 9.48655 12.3746 9.00012 12.3746C8.5137 12.3746 8.04671 12.1837 7.69962 11.8429L2.43012 6.65663C2.37297 6.60106 2.32754 6.5346 2.29652 6.46117C2.2655 6.38774 2.24951 6.30884 2.24951 6.22913C2.24951 6.14942 2.2655 6.07051 2.29652 5.99708C2.32754 5.92366 2.37297 5.85719 2.43012 5.80163C2.54583 5.68792 2.70158 5.6242 2.86381 5.6242C3.02604 5.6242 3.18178 5.68792 3.2975 5.80163Z" fill="#0A84FF"/>
</svg>
