<svg width="40" height="36" viewBox="0 0 40 36" fill="none" xmlns="http://www.w3.org/2000/svg">
<path d="M32.0001 19.296C32.0001 20.808 30.6401 21.6 28.8001 21.6H23.4401C23.8401 22.896 24.0001 24.12 24.0001 25.2C24.0001 29.376 22.7201 30.24 21.6001 30.24C20.8801 30.24 20.3201 30.168 19.6001 29.808C19.3601 29.664 19.2801 29.52 19.2001 29.304L18.4001 25.416C17.5201 23.4 15.3601 21.6 13.6001 20.376V10.08C14.2401 10.08 14.8801 9.79199 15.6801 9.43199C16.5601 9.07199 17.4401 8.63999 18.4001 8.63999H26.0001C27.6001 8.63999 28.8001 9.79199 28.8001 10.8C28.8001 11.016 28.8001 11.16 28.7201 11.304C29.6801 11.664 30.4001 12.384 30.4001 13.32C30.4001 13.752 30.3201 14.112 30.1601 14.472C30.8001 14.832 31.3601 15.48 31.3601 16.2C31.3601 16.632 31.1201 17.064 30.8801 17.424C31.5201 17.856 32.0001 18.576 32.0001 19.296ZM30.3201 19.296C30.3201 18.36 29.2801 18.288 29.1201 17.856C28.9601 17.352 29.7601 17.208 29.7601 16.344C29.7601 15.48 28.5601 15.48 28.4001 14.976C28.2401 14.4 28.8001 14.256 28.8001 13.392V13.248C28.6401 12.528 27.4401 12.456 27.2001 12.168C26.9601 11.808 27.2001 11.664 27.2001 10.872C27.2001 10.44 26.6401 10.152 26.0001 10.152H18.4001C17.7601 10.152 17.1201 10.44 16.3201 10.8C15.6801 11.088 15.0401 11.376 14.4001 11.52V19.08C16.4001 20.448 18.9601 22.464 19.9201 24.984V25.128L20.6401 28.728C20.9601 28.8 21.2001 28.8 21.6001 28.8C21.7601 28.8 22.4001 27.936 22.4001 25.2C22.4001 24.12 22.1601 22.968 21.7601 21.6H21.6001C21.1201 21.6 20.8001 21.312 20.8001 20.88C20.8001 20.448 21.1201 20.16 21.6001 20.16H28.8001C29.6001 20.16 30.3201 19.8 30.3201 19.296Z" fill="#FF0000"/>
<path d="M12.7999 8.63997H7.9999C7.1199 8.63997 6.3999 9.28798 6.3999 10.08V20.16C6.3999 20.952 7.1199 21.6 7.9999 21.6H12.7999C13.6799 21.6 14.3999 20.952 14.3999 20.16V10.08C14.3999 9.28798 13.6799 8.63997 12.7999 8.63997ZM7.9999 20.16V10.08H12.7999V20.16H7.9999Z" fill="#FF0000"/>
</svg>
