<svg width="40" height="36" viewBox="0 0 40 36" fill="none" xmlns="http://www.w3.org/2000/svg">
<path d="M32.0001 16.704C32.0001 15.192 30.6401 14.4 28.8001 14.4H23.4401C23.8401 13.104 24.0001 11.88 24.0001 10.8C24.0001 6.62401 22.7201 5.76001 21.6001 5.76001C20.8801 5.76001 20.3201 5.83201 19.6001 6.19201C19.3601 6.33601 19.2801 6.48001 19.2001 6.69601L18.4001 10.584C17.5201 12.6 15.3601 14.4 13.6001 15.624V25.92C14.2401 25.92 14.8801 26.208 15.6801 26.568C16.5601 26.928 17.4401 27.36 18.4001 27.36H26.0001C27.6001 27.36 28.8001 26.208 28.8001 25.2C28.8001 24.984 28.8001 24.84 28.7201 24.696C29.6801 24.336 30.4001 23.616 30.4001 22.68C30.4001 22.248 30.3201 21.888 30.1601 21.528C30.8001 21.168 31.3601 20.52 31.3601 19.8C31.3601 19.368 31.1201 18.936 30.8801 18.576C31.5201 18.144 32.0001 17.424 32.0001 16.704ZM30.3201 16.704C30.3201 17.64 29.2801 17.712 29.1201 18.144C28.9601 18.648 29.7601 18.792 29.7601 19.656C29.7601 20.52 28.5601 20.52 28.4001 21.024C28.2401 21.6 28.8001 21.744 28.8001 22.608V22.752C28.6401 23.472 27.4401 23.544 27.2001 23.832C26.9601 24.192 27.2001 24.336 27.2001 25.128C27.2001 25.56 26.6401 25.848 26.0001 25.848H18.4001C17.7601 25.848 17.1201 25.56 16.3201 25.2C15.6801 24.912 15.0401 24.624 14.4001 24.48V16.92C16.4001 15.552 18.9601 13.536 19.9201 11.016V10.872L20.6401 7.27201C20.9601 7.20001 21.2001 7.20001 21.6001 7.20001C21.7601 7.20001 22.4001 8.06401 22.4001 10.8C22.4001 11.88 22.1601 13.032 21.7601 14.4H21.6001C21.1201 14.4 20.8001 14.688 20.8001 15.12C20.8001 15.552 21.1201 15.84 21.6001 15.84H28.8001C29.6001 15.84 30.3201 16.2 30.3201 16.704Z" fill="#00FF00"/>
<path d="M12.7999 27.36H7.9999C7.1199 27.36 6.3999 26.712 6.3999 25.92V15.84C6.3999 15.048 7.1199 14.4 7.9999 14.4H12.7999C13.6799 14.4 14.3999 15.048 14.3999 15.84V25.92C14.3999 26.712 13.6799 27.36 12.7999 27.36ZM7.9999 15.84V25.92H12.7999V15.84H7.9999Z" fill="#00FF00"/>
</svg>
